<?xml version="1.0" encoding="UTF-8" standalone="no"?><!-- Generator: Gravit.io --><svg xmlns="http://www.w3.org/2000/svg" xmlns:xlink="http://www.w3.org/1999/xlink" style="isolation:isolate" viewBox="0 0 64 64" width="64pt" height="64pt"><defs><clipPath id="_clipPath_8gAFe1xSv9Xqqx8BUwPN0KonDqRPYIxn"><rect width="64" height="64"/></clipPath></defs><g clip-path="url(#_clipPath_8gAFe1xSv9Xqqx8BUwPN0KonDqRPYIxn)"><mask id="_mask_fpwkzgDVMu8i6lAjdkbR0my8T8NvuRN4"><path d=" M 63.544 24.918 L 47.772 40.292 L 51.495 62 L 32 51.751 L 12.505 62 L 16.228 40.292 L 0.456 24.918 L 22.252 21.751 L 32 2 L 41.748 21.751 L 63.544 24.918 Z " fill="white" stroke="none"/></mask><path d=" M 63.544 24.918 L 47.772 40.292 L 51.495 62 L 32 51.751 L 12.505 62 L 16.228 40.292 L 0.456 24.918 L 22.252 21.751 L 32 2 L 41.748 21.751 L 63.544 24.918 Z " fill="none"/><path d=" M 63.544 24.918 L 47.772 40.292 L 51.495 62 L 32 51.751 L 12.505 62 L 16.228 40.292 L 0.456 24.918 L 22.252 21.751 L 32 2 L 41.748 21.751 L 63.544 24.918 Z " fill="none" mask="url(#_mask_fpwkzgDVMu8i6lAjdkbR0my8T8NvuRN4)" vector-effect="non-scaling-stroke" stroke-width="1" stroke="rgb(0,0,0)" stroke-linejoin="miter" stroke-linecap="square" stroke-miterlimit="3"/></g></svg>